<?xml version="1.0" encoding="utf-8"?>
<!-- Generator: Adobe Illustrator 21.1.0, SVG Export Plug-In . SVG Version: 6.00 Build 0)  -->
<svg version="1.1" id="Layer_1" xmlns="http://www.w3.org/2000/svg" xmlns:xlink="http://www.w3.org/1999/xlink" x="0px" y="0px"
	 viewBox="0 0 400 300" style="enable-background:new 0 0 400 300;" xml:space="preserve">
<style type="text/css">
	.st0{fill:#FFFFFF;}
	.st1{fill:none;}
</style>
<g>
	<g>
		<path class="st0" d="M108.5,20.4c0.5-1.6,0.7-2.8,0.7-3.8c0-1.6-0.5-3.2-1.6-4.6c-1.1-1.4-2.5-2.7-4.4-3.7
			c-1.9-1.1-4.1-1.9-6.7-2.4C94,5.3,91.2,5,88.3,5C84.4,5,81,5.5,77.8,6.4c-3.1,0.9-6.1,2.3-9.1,4.1c-1.4-2.1-3.9-3.6-7.7-4.3
			C57.3,5.4,52.6,5,47,5c-5.1,0-8.5,0.5-10.2,1.6c-1.6,1.1-2.5,2.5-2.5,4.5c0,2.5,1.4,3.7,4.3,3.7H40c3.7,0,5.6,1,5.6,2.9
			c0,0.6-0.2,1.5-0.7,2.6L5.9,107.7c1.1,0.2,3.6,0.3,7.6,0.3c3.9,0,9.5,0.1,16.8,0.1c7,0,13.2-0.7,18.8-2c5.5-1.3,10.5-3.4,14.9-6.2
			c4.4-2.8,8.2-6.3,11.6-10.7c3.4-4.3,6.4-9.4,9.1-15.4l20.9-46.1C107,24.4,108,22,108.5,20.4z M85.2,20.6c0,0.3-0.2,0.9-0.4,1.6
			c-0.2,0.7-0.6,1.7-1,2.9c-0.5,1.2-1.1,2.8-2.1,4.8L64.8,67c-2.7,6-5.2,10.9-7.8,14.7c-2.5,3.9-5,6.9-7.3,9.1
			c-2.3,2.2-4.5,3.7-6.6,4.6c-2.1,0.9-4,1.3-5.8,1.3c-0.7,0-1.3,0-1.6-0.1c-0.4,0-0.6-0.1-0.8-0.2l32.9-73.6c1.2-2.8,2.6-5,4.4-6.3
			c1.7-1.4,4-2.1,6.9-2.1c4.2,0,6.3,1.8,6.3,5.4C85.3,20,85.2,20.3,85.2,20.6z"/>
		<path class="st0" d="M237.6,36.7c1.9,1.1,4,1.6,6.4,1.6c1.7,0,3.6-0.3,5.6-0.8c2-0.6,3.9-1.3,5.6-2.3c1.7-1,3.1-2.2,4.3-3.6
			c1.1-1.4,1.7-3,1.7-4.7c0-1.9-0.9-3.4-2.8-4.5c-1.9-1.1-4-1.7-6.4-1.7c-2.1,0-4.2,0.3-6.2,1c-2,0.6-3.8,1.5-5.5,2.6
			c-1.6,1.1-3,2.4-4,3.8c-1,1.4-1.5,2.9-1.5,4.3C234.7,34.2,235.7,35.6,237.6,36.7z"/>
		<path class="st0" d="M390.4,78.7c-0.6,1.4-1.8,2.9-3.4,4.6c-1.6,1.7-3.5,3.3-5.5,4.7c-2,1.5-4.1,2.7-6.2,3.7
			c-2.1,1-3.9,1.5-5.4,1.5c-1.6,0-2.5-0.7-2.5-2.1c0-0.8,0.3-1.9,1-3.2c0.9-2.3,2-4.7,3.2-7.4c1.2-2.6,2.4-5.2,3.5-7.8
			c1.1-2.6,2-5,2.7-7.4c0.7-2.3,1.1-4.4,1.1-6.1c0-3.2-0.9-5.7-2.8-7.6c-1.9-1.8-4.6-2.8-8-2.8c-3.1,0-6.3,0.3-9.6,0.8
			c-3.3,0.5-6.1,1.9-8.4,4.1l-14.4-7.6l-14.4,32.5c-0.7,1.3-1.8,2.8-3.4,4.4c-1.6,1.7-3.5,3.3-5.5,4.7c-2,1.5-4,2.7-6,3.7
			s-3.8,1.5-5.2,1.5c-1.6,0-2.5-0.7-2.5-2.1c0-1.1,0.6-2.8,1.7-5l15.5-34.8h-16.1l-1.2,3.2c-0.7-1.7-2-3.1-3.7-4.1
			c-1.7-1-3.9-1.4-6.5-1.4c-3.2,0-6.2,0.3-9,1c-2.8,0.6-5.5,1.9-8.1,3.9c-2.6,1.9-5.2,4.7-7.8,8.2c-2.6,3.6-5.1,8.3-7.7,14.2
			c-0.4,0.9-0.5,1.6-0.9,2.4l-0.1-0.1c-0.6,1.4-1.8,2.9-3.4,4.6c-1.6,1.7-3.5,3.3-5.5,4.7c-2,1.5-4.1,2.7-6.2,3.7
			c-2.1,1-3.9,1.5-5.5,1.5c-1.6,0-2.3-0.7-2.3-2.1c0-0.6,0.2-1.4,0.7-2.5L247,55.9l-17.3-9.5l-14.5,32.4l-0.1-0.1
			c-1.6,2.6-3.5,4.9-5.9,7.1c-2.4,2.2-4.9,4-7.7,5.6c-2.7,1.6-5.5,2.9-8.3,4c-2.8,1.1-5.4,1.8-7.8,2.1c4.9-1.8,8.4-4.4,10.6-7.8
			c2.2-3.4,3.4-7.4,3.4-12.1c0-5.1-3.7-12.4-11.1-21.7c2.1-1.9,3.8-3.7,5.1-5.2c1.3-1.6,2.3-3,3-4.2c0.7-1.2,1.1-2.4,1.3-3.4
			c0.2-1,0.3-1.9,0.3-2.8c0-2.7-0.7-4.5-2.2-5.4c-1.5-1-3.4-1.4-5.8-1.4c-2.6,0-4.9,0.6-7.1,1.7c-2.2,1.2-4,2.7-5.6,4.6
			c-1.6,1.9-2.8,4.2-3.6,6.8c-0.9,2.6-1.3,5.3-1.3,8.2c0,0.8,0,1.4,0.1,1.9c0.1,0.4,0.1,0.9,0.2,1.6c-1.8,1.6-3.5,3.2-5.1,4.6
			c-1.6,1.4-3,2.9-4.5,4.5c-1.4,1.6-2.8,3.2-4.2,5c-1.4,1.8-2.8,3.9-4.4,6.4c-1.6,2.8-3.8,5.3-6.6,7.7c-2.8,2.4-6,4.5-9.6,6.3
			c-3.5,1.8-7.3,3.2-11.2,4.2c-3.9,1-7.8,1.5-11.5,1.5c-3.4,0-5.1-1.2-5.1-3.7c0-1.1,0.3-2.5,0.9-4.2c0.6-1.7,1.4-3.7,2.5-6.1
			c2.6-0.1,5.4-0.3,8.4-0.7c3.1-0.4,6.1-0.9,9.1-1.7c3-0.7,5.8-1.7,8.3-3c2.5-1.2,4.5-2.8,6-4.7c2.1-2.8,3.5-5.6,4.2-8.5
			c0.7-2.9,1-5.5,1-7.8c0-1.4-0.2-2.6-0.8-3.7c-0.5-1.1-1.4-2-2.7-2.8c-1.3-0.7-3.1-1.3-5.4-1.7c-2.3-0.4-5.3-0.6-8.9-0.6
			c-4.7,0-8.7,0.4-12.2,1.1c-3.4,0.7-6.5,1.9-9.1,3.6c-2.6,1.7-4.9,3.8-6.8,6.4c-1.9,2.6-3.7,5.8-5.4,9.6l-5.1,11.4
			c-2.8,6.5-4.3,11.6-4.3,15.4c0,2.6,0.5,4.6,1.5,6.1c1,1.5,2.5,2.7,4.4,3.5c1.9,0.8,4.3,1.4,7.1,1.6c2.8,0.2,6,0.3,9.7,0.3
			c6.8,0,12.8-1,18-2.9c5.2-1.9,10.4-4.8,15.7-8.5c1.9-1.3,3.3-2.7,4.8-4.1c0.7-0.5,1.5-1.1,1.9-1.6v1.5c0,2.1,0.5,4.1,1.4,5.9
			c1,1.8,2.3,3.5,4,4.9c1.7,1.5,3.7,2.6,6,3.4c2.3,0.8,4.9,1.2,7.6,1.2c4.6,0,9.2-0.6,13.9-1.7c4.7-1.1,9.1-2.8,13.3-5
			c2.9-1.5,5.4-3.4,7.9-5.3c-0.2,1-0.4,2-0.4,3c0,2.8,0.9,4.9,2.8,6.5c1.9,1.6,4.3,2.4,7.2,2.4c3.7,0,7.7-0.8,12-2.3
			c4.4-1.5,8.5-3.4,12.5-5.8c4-2.3,7.5-4.9,10.5-7.7c0.7,5.7,3.8,9.3,9.7,10.4c-2.7,0.6-5.2,1.6-7.7,3c-2.5,1.3-4.6,2.9-6.5,4.7
			c-1.9,1.8-3.4,3.8-4.5,6c-1.1,2.2-1.6,4.5-1.6,7c0,6.7,5.2,10,15.5,10c14.8,0,24.7-5.8,29.7-17.3l5.6-13.1
			c1.3,0.7,2.7,1.1,4.3,1.1c2.1,0,4.6-0.6,7.4-1.9c2.8-1.3,5.7-2.9,8.5-4.8c0.1,0,0.1-0.1,0.1-0.1l-4.6,10.4h23l20.3-46.1
			c0.5-1.1,1.1-1.9,2.1-2.5c0.9-0.6,2-0.9,3.2-0.9c1.3,0,1.9,0.5,1.9,1.6c0,0.4-0.1,0.8-0.1,1.2c-0.1,0.5-0.3,1.1-0.6,1.9
			c-1.1,2.8-2.5,5.9-4.3,9.3c-1.7,3.5-3.4,7-5,10.5c-1.6,3.5-3,6.7-4.1,9.6c-1.1,2.9-1.7,5.2-1.7,6.9c0,2.7,0.9,4.8,2.6,6.4
			c1.7,1.6,4.2,2.4,7.4,2.4c3.6,0,7.5-0.7,11.9-2.2c4.3-1.5,8.5-3.4,12.5-5.7s7.5-4.9,10.7-7.8c3.1-2.8,5.3-5.6,6.5-8.4L390.4,78.7z
			 M122.8,64.1c1-2.2,1.9-3.6,2.8-4.3c0.9-0.7,1.9-1,3-1c1.7,0,2.6,0.6,2.6,1.8c0,2.2-0.4,4.3-1.1,6.2c-0.7,1.9-1.7,3.6-3,5.1
			c-1.3,1.5-2.8,2.7-4.6,3.6c-1.8,0.9-3.7,1.5-5.7,1.7L122.8,64.1z M177.5,85.2c-0.5,1.6-1.3,3-2.3,4.3c-1,1.3-2.1,2.3-3.5,3.2
			c-1.4,0.8-2.8,1.2-4.4,1.2c-1.9,0-3.3-0.3-4.1-1c-0.8-0.7-1.2-1.8-1.2-3.4c0-1.7,0.2-3.4,0.8-5.2c0.5-1.8,1.5-3.9,3.1-6.3
			c1.6-2.5,3.2-4.5,5-6.1c1.8-1.6,3.4-2.9,4.9-3.9c0.7,1.3,1.3,3,1.8,5.2c0.5,2.2,0.7,4.6,0.7,7.3C178.4,82.1,178.1,83.6,177.5,85.2
			z M184.3,47.1c-0.1-0.7-0.1-1.2-0.1-1.4c0-2.8,1.1-4.1,3.3-4.1c0.8,0,1.2,0.5,1.2,1.4c0,0.7-0.2,1.6-0.7,2.5
			c-0.5,0.9-1.6,2-3.6,3.3C184.4,48.4,184.4,47.8,184.3,47.1z M266,113.4c-1.1,2.6-2.2,4.7-3.2,6.5c-0.8,1.6-2,2.3-3.4,2.3
			c-1.6,0-2.3-0.6-2.3-1.8c0-0.6,0.2-1.5,0.7-2.6c0.5-1.1,1.3-2.8,2.6-5.1c1-1.8,2.3-3.4,3.8-4.6c1.5-1.2,3.4-2.6,5.7-4.2
			C268.3,107.6,267.1,110.8,266,113.4z M289.2,62.6l-11,24.6c-1.3,2.8-3.1,4.1-5.5,4.1c-1.1,0-1.6-0.6-1.6-1.9
			c0-1.1,0.4-2.5,1.1-4.1l10.4-23.7c0.5-1,1-1.7,1.6-2.2c0.6-0.5,1.6-0.7,3-0.7c1.6,0,2.5,0.6,2.5,1.9
			C289.6,61.3,289.5,62,289.2,62.6z"/>
	</g>
	<g>
		<path class="st1" d="M174.7,157c-0.5-1.9-1.2-3.4-2.1-4.5c-0.9-1.1-2.1-2.1-3.8-2.9c-1.6-0.8-3.5-1.2-5.8-1.2
			c-2.2,0-4.1,0.4-5.7,1.2c-1.6,0.8-2.8,1.7-3.7,2.8c-0.9,1.1-1.6,2.6-2,4.6c-0.5,1.9-0.8,3.7-0.9,5.2c-0.1,1.6-0.2,3.5-0.2,5.9
			v80.7c0,2.4,0,4.4,0.2,5.9c0.1,1.6,0.4,3.3,0.9,5.3s1.2,3.5,2,4.6s2.1,2.1,3.7,2.9c1.6,0.8,3.5,1.2,5.7,1.2c2.2,0,4.2-0.4,5.8-1.2
			c1.6-0.8,2.9-1.8,3.8-2.9c0.9-1.2,1.6-2.7,2.1-4.6c0.5-1.9,0.8-3.7,1-5.3c0.1-1.7,0.2-3.6,0.2-5.9v-80.7c0-2.2-0.1-4.2-0.2-5.8
			C175.6,160.6,175.2,158.8,174.7,157z"/>
		<path class="st1" d="M282.6,128.6c-6.2,5.6-14.4,8.7-25,8.7c-1.6,0-2.9-0.1-4.2-0.3l29.2,68.2V128.6z"/>
		<g>
			<path class="st0" d="M93.8,135.7c-3.6-4.5-8.6-7.8-15-10.1c-6.4-2.3-14.1-3.5-23.2-3.5c-9.5,0-17.5,1.3-24.1,3.8
				c-6.6,2.5-11.8,6.3-15.6,11.4c-3.8,5-6.6,10.9-8.3,17.6c-1.7,6.7-2.5,14.7-2.5,23.8v59.9c0,8.9,0.8,16.7,2.5,23.3
				c1.7,6.6,4.4,12.5,8.3,17.5c3.8,5.1,9,8.9,15.7,11.5c6.6,2.6,14.6,3.9,24,3.9c7.4,0,13.9-0.8,19.5-2.5c5.6-1.7,10.2-3.9,13.8-6.8
				c3.6-2.9,6.6-6.5,8.8-10.8c2.3-4.3,3.9-8.9,4.8-13.7c0.9-4.9,1.4-10.3,1.4-16.3v-14.5H67.7v17.7c0,2.6,0,4.6-0.1,6.2
				c-0.1,1.5-0.3,3.4-0.8,5.5c-0.4,2.1-1.1,3.7-1.9,4.9c-0.8,1.1-2,2.1-3.6,3c-1.6,0.9-3.5,1.3-5.7,1.3c-4.9,0-8.3-1.8-10-5.3
				c-1.8-3.6-2.6-8.7-2.6-15.5v-78.4c0-2.5,0-4.6,0.2-6.3c0.1-1.7,0.4-3.6,0.9-5.6c0.5-2.1,1.2-3.7,2-4.9c0.8-1.2,2.1-2.2,3.7-3
				c1.6-0.9,3.6-1.3,5.9-1.3c2.3,0,4.3,0.4,5.9,1.3c1.6,0.8,2.8,1.8,3.6,2.9c0.8,1.1,1.4,2.7,1.8,4.8c0.4,2.1,0.6,3.9,0.7,5.2
				c0.1,1.4,0.1,3.4,0.1,6v16.9H104v-14.8c0-7.5-0.8-14.1-2.4-19.8C100,145.3,97.4,140.2,93.8,135.7z"/>
			<path class="st0" d="M163.1,122.1c-9.3,0-17.3,1.2-23.9,3.7c-6.6,2.4-11.8,6.1-15.7,11c-3.9,4.9-6.7,10.6-8.4,17.2
				c-1.7,6.6-2.6,14.4-2.6,23.5v62.1c0,9,0.9,16.8,2.6,23.4c1.7,6.6,4.5,12.4,8.4,17.3s9.1,8.6,15.7,11.1c6.6,2.5,14.6,3.7,23.9,3.7
				c18.2,0,31.2-4.7,39.1-14.1c7.9-9.4,11.8-23.2,11.8-41.4v-62.1c0-18.3-3.9-32-11.8-41.3S181.3,122.1,163.1,122.1z M175.9,248.7
				c0,2.3-0.1,4.3-0.2,5.9c-0.1,1.7-0.5,3.4-1,5.3c-0.5,1.9-1.2,3.4-2.1,4.6c-0.9,1.2-2.1,2.2-3.8,2.9c-1.6,0.8-3.5,1.2-5.8,1.2
				c-2.2,0-4.1-0.4-5.7-1.2c-1.6-0.8-2.8-1.8-3.7-2.9s-1.6-2.7-2-4.6s-0.8-3.7-0.9-5.3c-0.1-1.6-0.2-3.6-0.2-5.9v-80.7
				c0-2.4,0-4.3,0.2-5.9c0.1-1.6,0.4-3.3,0.9-5.2c0.5-1.9,1.2-3.4,2-4.6c0.9-1.1,2.1-2.1,3.7-2.8c1.6-0.8,3.5-1.2,5.7-1.2
				c2.2,0,4.2,0.4,5.8,1.2c1.6,0.8,2.9,1.7,3.8,2.9c0.9,1.2,1.6,2.7,2.1,4.5c0.5,1.9,0.8,3.6,1,5.3c0.1,1.7,0.2,3.6,0.2,5.8V248.7z"
				/>
			<path class="st0" d="M282.6,128.6v76.6L253.4,137c-12.1-1.3-14.7-7.9-14.9-12.6h-16.7v168.2h31.7v-87.1l34.7,87.1h25.2V124.5
				h-26.9C285.3,126,284,127.4,282.6,128.6z"/>
			<polygon class="st0" points="394.9,149.7 394.9,124.5 322.1,124.5 322.1,292.7 359.2,292.7 359.2,218 390,218 390,192 359.2,192 
				359.2,149.7 			"/>
		</g>
		<path class="st0" d="M258.3,122.1c-0.2-0.1-0.4,0-0.5-0.1C257.9,122,258.1,122,258.3,122.1z"/>
	</g>
</g>
</svg>
